# xmcd CD database file
#
# Track frame offsets:
#	150
#	21400
#	55568
#	76185
#	92774
#	113456
#	130923
#	145618
#	163646
#	186259
#
# Disc length: 2766 seconds
#
# Revision: 0
# Processed by: cddbd v1.5.2PL0 Copyright (c) Steve Scherf et al.
# Submitted via: CDex 1.51
#
DISCID=750acc0a
DTITLE=Jimmy Sabater - Jimmy's Best
DYEAR=1900
DGENRE=Salsa
TTITLE0=Buen Borincano
TTITLE1=Blues For Louie Ramirez
TTITLE2=Bomba Carambomba
TTITLE3=Mi Negrita Me Espera (Tributo a Ismael Rivera)
TTITLE4=Cara De Payaso (Tributo a Tito Rodriguez)
TTITLE5=Una Vez Mas
TTITLE6=Laura
TTITLE7=Mack the Knife
TTITLE8=Volare (English)
TTITLE9=Mama Guela (feat: Jose Mangual, Jr.)
EXTD=
EXTT0=
EXTT1=
EXTT2=
EXTT3=
EXTT4=
EXTT5=
EXTT6=
EXTT7=
EXTT8=
EXTT9=
PLAYORDER=
